<mxfile host="app.diagrams.net" agent="Mozilla/5.0 (Macintosh; Intel Mac OS X 10_15_7) AppleWebKit/537.36 (KHTML, like Gecko) Chrome/131.0.0.0 Safari/537.36" version="26.0.1">
  <diagram name="Page-1" id="uMyRcfYP7-Buo0_BeLci">
    <mxGraphModel dx="3638" dy="1529" grid="1" gridSize="10" guides="1" tooltips="1" connect="1" arrows="1" fold="1" page="1" pageScale="1" pageWidth="827" pageHeight="1169" math="0" shadow="0">
      <root>
        <mxCell id="0" />
        <mxCell id="1" parent="0" />
        <mxCell id="rP7vyAMRoJXwcJd-NHnV-3" value="" style="edgeStyle=orthogonalEdgeStyle;rounded=0;orthogonalLoop=1;jettySize=auto;html=1;" edge="1" parent="1" source="rP7vyAMRoJXwcJd-NHnV-1" target="rP7vyAMRoJXwcJd-NHnV-2">
          <mxGeometry relative="1" as="geometry" />
        </mxCell>
        <mxCell id="rP7vyAMRoJXwcJd-NHnV-1" value="&lt;h1&gt;Request to base URL&lt;/h1&gt;" style="rounded=1;whiteSpace=wrap;html=1;" vertex="1" parent="1">
          <mxGeometry x="310" y="30" width="220" height="110" as="geometry" />
        </mxCell>
        <mxCell id="rP7vyAMRoJXwcJd-NHnV-8" value="" style="edgeStyle=orthogonalEdgeStyle;rounded=0;orthogonalLoop=1;jettySize=auto;html=1;" edge="1" parent="1" source="rP7vyAMRoJXwcJd-NHnV-2" target="rP7vyAMRoJXwcJd-NHnV-7">
          <mxGeometry relative="1" as="geometry" />
        </mxCell>
        <mxCell id="rP7vyAMRoJXwcJd-NHnV-10" value="" style="edgeStyle=orthogonalEdgeStyle;rounded=0;orthogonalLoop=1;jettySize=auto;html=1;" edge="1" parent="1" source="rP7vyAMRoJXwcJd-NHnV-2" target="rP7vyAMRoJXwcJd-NHnV-9">
          <mxGeometry relative="1" as="geometry" />
        </mxCell>
        <mxCell id="rP7vyAMRoJXwcJd-NHnV-2" value="&lt;h1 style=&quot;&quot;&gt;&lt;font style=&quot;font-size: 20px;&quot;&gt;Login or Register?&lt;/font&gt;&lt;/h1&gt;" style="rhombus;whiteSpace=wrap;html=1;align=center;" vertex="1" parent="1">
          <mxGeometry x="310" y="270" width="220" height="220" as="geometry" />
        </mxCell>
        <mxCell id="rP7vyAMRoJXwcJd-NHnV-7" value="" style="rounded=1;whiteSpace=wrap;html=1;strokeColor=default;" vertex="1" parent="1">
          <mxGeometry x="-130" y="325" width="240" height="110" as="geometry" />
        </mxCell>
        <mxCell id="rP7vyAMRoJXwcJd-NHnV-16" value="" style="edgeStyle=orthogonalEdgeStyle;rounded=0;orthogonalLoop=1;jettySize=auto;html=1;" edge="1" parent="1" source="rP7vyAMRoJXwcJd-NHnV-9" target="rP7vyAMRoJXwcJd-NHnV-15">
          <mxGeometry relative="1" as="geometry" />
        </mxCell>
        <mxCell id="rP7vyAMRoJXwcJd-NHnV-9" value="" style="rounded=1;whiteSpace=wrap;html=1;" vertex="1" parent="1">
          <mxGeometry x="760" y="325" width="240" height="111" as="geometry" />
        </mxCell>
        <mxCell id="rP7vyAMRoJXwcJd-NHnV-11" value="&lt;font style=&quot;font-size: 20px;&quot;&gt;Email, first name, last name, password&lt;/font&gt;" style="text;strokeColor=none;align=center;fillColor=none;html=1;verticalAlign=middle;whiteSpace=wrap;rounded=0;" vertex="1" parent="1">
          <mxGeometry x="802.5" y="345.5" width="155" height="70" as="geometry" />
        </mxCell>
        <mxCell id="rP7vyAMRoJXwcJd-NHnV-12" value="&lt;font style=&quot;font-size: 20px;&quot;&gt;Register&lt;/font&gt;" style="text;strokeColor=none;align=center;fillColor=none;html=1;verticalAlign=middle;whiteSpace=wrap;rounded=0;" vertex="1" parent="1">
          <mxGeometry x="680" y="340" width="60" height="30" as="geometry" />
        </mxCell>
        <mxCell id="rP7vyAMRoJXwcJd-NHnV-13" value="&lt;font style=&quot;font-size: 20px;&quot;&gt;Login&lt;/font&gt;" style="text;strokeColor=none;align=center;fillColor=none;html=1;verticalAlign=middle;whiteSpace=wrap;rounded=0;" vertex="1" parent="1">
          <mxGeometry x="120" y="340" width="60" height="30" as="geometry" />
        </mxCell>
        <mxCell id="rP7vyAMRoJXwcJd-NHnV-27" value="" style="edgeStyle=orthogonalEdgeStyle;rounded=0;orthogonalLoop=1;jettySize=auto;html=1;" edge="1" parent="1" source="rP7vyAMRoJXwcJd-NHnV-15" target="rP7vyAMRoJXwcJd-NHnV-26">
          <mxGeometry relative="1" as="geometry" />
        </mxCell>
        <mxCell id="rP7vyAMRoJXwcJd-NHnV-15" value="" style="rhombus;whiteSpace=wrap;html=1;rounded=1;" vertex="1" parent="1">
          <mxGeometry x="797.5" y="520" width="165" height="165" as="geometry" />
        </mxCell>
        <mxCell id="rP7vyAMRoJXwcJd-NHnV-17" value="&lt;font style=&quot;font-size: 20px;&quot;&gt;Nationality?&lt;/font&gt;" style="text;strokeColor=none;align=center;fillColor=none;html=1;verticalAlign=middle;whiteSpace=wrap;rounded=0;" vertex="1" parent="1">
          <mxGeometry x="850" y="585" width="60" height="30" as="geometry" />
        </mxCell>
        <mxCell id="rP7vyAMRoJXwcJd-NHnV-30" value="" style="edgeStyle=orthogonalEdgeStyle;rounded=0;orthogonalLoop=1;jettySize=auto;html=1;" edge="1" parent="1" source="rP7vyAMRoJXwcJd-NHnV-26" target="rP7vyAMRoJXwcJd-NHnV-29">
          <mxGeometry relative="1" as="geometry" />
        </mxCell>
        <mxCell id="rP7vyAMRoJXwcJd-NHnV-32" value="" style="edgeStyle=orthogonalEdgeStyle;rounded=0;orthogonalLoop=1;jettySize=auto;html=1;" edge="1" parent="1" source="rP7vyAMRoJXwcJd-NHnV-26" target="rP7vyAMRoJXwcJd-NHnV-31">
          <mxGeometry relative="1" as="geometry" />
        </mxCell>
        <mxCell id="rP7vyAMRoJXwcJd-NHnV-26" value="" style="rhombus;whiteSpace=wrap;html=1;rounded=1;" vertex="1" parent="1">
          <mxGeometry x="801.25" y="780" width="157.5" height="157.5" as="geometry" />
        </mxCell>
        <mxCell id="rP7vyAMRoJXwcJd-NHnV-28" value="&lt;font style=&quot;font-size: 20px;&quot;&gt;Iranian?&lt;/font&gt;" style="text;strokeColor=none;align=center;fillColor=none;html=1;verticalAlign=middle;whiteSpace=wrap;rounded=0;" vertex="1" parent="1">
          <mxGeometry x="850" y="841.87" width="60" height="33.75" as="geometry" />
        </mxCell>
        <mxCell id="rP7vyAMRoJXwcJd-NHnV-29" value="ID Number must be provided" style="whiteSpace=wrap;html=1;rounded=1;" vertex="1" parent="1">
          <mxGeometry x="1057.5" y="828.75" width="120" height="60" as="geometry" />
        </mxCell>
        <mxCell id="rP7vyAMRoJXwcJd-NHnV-41" value="" style="edgeStyle=orthogonalEdgeStyle;rounded=0;orthogonalLoop=1;jettySize=auto;html=1;" edge="1" parent="1" source="rP7vyAMRoJXwcJd-NHnV-31" target="rP7vyAMRoJXwcJd-NHnV-40">
          <mxGeometry relative="1" as="geometry" />
        </mxCell>
        <mxCell id="rP7vyAMRoJXwcJd-NHnV-31" value="Passport number must be provided" style="whiteSpace=wrap;html=1;rounded=1;strokeColor=default;" vertex="1" parent="1">
          <mxGeometry x="820" y="1066.25" width="120" height="60" as="geometry" />
        </mxCell>
        <mxCell id="rP7vyAMRoJXwcJd-NHnV-33" value="&lt;font style=&quot;font-size: 20px;&quot;&gt;Yes&lt;/font&gt;" style="text;strokeColor=none;align=center;fillColor=none;html=1;verticalAlign=middle;whiteSpace=wrap;rounded=0;" vertex="1" parent="1">
          <mxGeometry x="1000" y="820" width="60" height="30" as="geometry" />
        </mxCell>
        <mxCell id="rP7vyAMRoJXwcJd-NHnV-34" value="&lt;font style=&quot;font-size: 20px;&quot;&gt;No&lt;/font&gt;" style="text;strokeColor=none;align=center;fillColor=none;html=1;verticalAlign=middle;whiteSpace=wrap;rounded=0;" vertex="1" parent="1">
          <mxGeometry x="880" y="1030" width="60" height="30" as="geometry" />
        </mxCell>
        <mxCell id="rP7vyAMRoJXwcJd-NHnV-35" value="&lt;font style=&quot;font-size: 20px;&quot;&gt;Email, Password&lt;/font&gt;" style="text;strokeColor=none;align=center;fillColor=none;html=1;verticalAlign=middle;whiteSpace=wrap;rounded=0;" vertex="1" parent="1">
          <mxGeometry x="-40" y="365" width="60" height="30" as="geometry" />
        </mxCell>
        <mxCell id="rP7vyAMRoJXwcJd-NHnV-44" value="" style="edgeStyle=orthogonalEdgeStyle;rounded=0;orthogonalLoop=1;jettySize=auto;html=1;" edge="1" parent="1" source="rP7vyAMRoJXwcJd-NHnV-40" target="rP7vyAMRoJXwcJd-NHnV-43">
          <mxGeometry relative="1" as="geometry" />
        </mxCell>
        <mxCell id="rP7vyAMRoJXwcJd-NHnV-48" style="edgeStyle=orthogonalEdgeStyle;rounded=0;orthogonalLoop=1;jettySize=auto;html=1;exitX=0.5;exitY=1;exitDx=0;exitDy=0;" edge="1" parent="1" source="rP7vyAMRoJXwcJd-NHnV-40" target="rP7vyAMRoJXwcJd-NHnV-46">
          <mxGeometry relative="1" as="geometry" />
        </mxCell>
        <mxCell id="rP7vyAMRoJXwcJd-NHnV-40" value="&lt;font style=&quot;font-size: 20px;&quot;&gt;Authenticated?&lt;/font&gt;" style="rhombus;whiteSpace=wrap;html=1;rounded=1;" vertex="1" parent="1">
          <mxGeometry x="320" y="1140" width="230" height="230" as="geometry" />
        </mxCell>
        <mxCell id="rP7vyAMRoJXwcJd-NHnV-42" style="edgeStyle=orthogonalEdgeStyle;rounded=0;orthogonalLoop=1;jettySize=auto;html=1;exitX=0.5;exitY=1;exitDx=0;exitDy=0;" edge="1" parent="1" source="rP7vyAMRoJXwcJd-NHnV-7" target="rP7vyAMRoJXwcJd-NHnV-40">
          <mxGeometry relative="1" as="geometry">
            <mxPoint x="150" y="203" as="sourcePoint" />
            <mxPoint x="444.8699999999999" y="1169.0800000000002" as="targetPoint" />
            <Array as="points">
              <mxPoint x="-10" y="1255" />
            </Array>
          </mxGeometry>
        </mxCell>
        <mxCell id="rP7vyAMRoJXwcJd-NHnV-43" value="&lt;font style=&quot;font-size: 20px;&quot;&gt;- Able to view all products and categories&amp;nbsp;&lt;/font&gt;&lt;div&gt;&lt;font style=&quot;font-size: 20px;&quot;&gt;- Unable to submit order and be assigned a membership type&lt;/font&gt;&lt;/div&gt;" style="whiteSpace=wrap;html=1;rounded=1;" vertex="1" parent="1">
          <mxGeometry x="1057.5" y="1360" width="382.5" height="180" as="geometry" />
        </mxCell>
        <mxCell id="rP7vyAMRoJXwcJd-NHnV-45" value="&lt;font style=&quot;font-size: 20px;&quot;&gt;No&lt;/font&gt;" style="text;strokeColor=none;align=center;fillColor=none;html=1;verticalAlign=middle;whiteSpace=wrap;rounded=0;" vertex="1" parent="1">
          <mxGeometry x="1000" y="1410" width="60" height="30" as="geometry" />
        </mxCell>
        <mxCell id="rP7vyAMRoJXwcJd-NHnV-64" value="" style="edgeStyle=orthogonalEdgeStyle;rounded=0;orthogonalLoop=1;jettySize=auto;html=1;" edge="1" parent="1" source="rP7vyAMRoJXwcJd-NHnV-46" target="rP7vyAMRoJXwcJd-NHnV-63">
          <mxGeometry relative="1" as="geometry" />
        </mxCell>
        <mxCell id="rP7vyAMRoJXwcJd-NHnV-46" value="&lt;font style=&quot;font-size: 20px;&quot;&gt;- able to view all products + categories&lt;/font&gt;&lt;div&gt;&lt;font style=&quot;font-size: 20px;&quot;&gt;- able to add/remove items to/from an active shopping cart&lt;/font&gt;&lt;/div&gt;&lt;div&gt;&lt;font style=&quot;font-size: 20px;&quot;&gt;- able to purchase bronze, silver, or VIP membership or remain a regular user&lt;/font&gt;&lt;/div&gt;&lt;div&gt;&lt;font style=&quot;font-size: 20px;&quot;&gt;-able to submit an order and have a shopping history&lt;/font&gt;&lt;/div&gt;&lt;div&gt;&lt;font style=&quot;font-size: 20px;&quot;&gt;-load an active cart if exists&amp;nbsp;&lt;/font&gt;&lt;/div&gt;" style="whiteSpace=wrap;html=1;rounded=1;" vertex="1" parent="1">
          <mxGeometry x="200" y="1750" width="470" height="239" as="geometry" />
        </mxCell>
        <mxCell id="rP7vyAMRoJXwcJd-NHnV-49" value="&lt;font style=&quot;font-size: 20px;&quot;&gt;Yes&lt;/font&gt;" style="text;strokeColor=none;align=center;fillColor=none;html=1;verticalAlign=middle;whiteSpace=wrap;rounded=0;" vertex="1" parent="1">
          <mxGeometry x="440" y="1710" width="60" height="30" as="geometry" />
        </mxCell>
        <mxCell id="rP7vyAMRoJXwcJd-NHnV-70" value="" style="edgeStyle=orthogonalEdgeStyle;rounded=0;orthogonalLoop=1;jettySize=auto;html=1;" edge="1" parent="1" source="rP7vyAMRoJXwcJd-NHnV-63" target="rP7vyAMRoJXwcJd-NHnV-69">
          <mxGeometry relative="1" as="geometry" />
        </mxCell>
        <mxCell id="rP7vyAMRoJXwcJd-NHnV-75" value="" style="edgeStyle=orthogonalEdgeStyle;rounded=0;orthogonalLoop=1;jettySize=auto;html=1;" edge="1" parent="1" source="rP7vyAMRoJXwcJd-NHnV-63" target="rP7vyAMRoJXwcJd-NHnV-74">
          <mxGeometry relative="1" as="geometry" />
        </mxCell>
        <mxCell id="rP7vyAMRoJXwcJd-NHnV-112" value="" style="edgeStyle=orthogonalEdgeStyle;rounded=0;orthogonalLoop=1;jettySize=auto;html=1;" edge="1" parent="1" source="rP7vyAMRoJXwcJd-NHnV-63" target="rP7vyAMRoJXwcJd-NHnV-111">
          <mxGeometry relative="1" as="geometry" />
        </mxCell>
        <mxCell id="rP7vyAMRoJXwcJd-NHnV-63" value="&lt;font style=&quot;font-size: 20px;&quot;&gt;Shopping cart exists?&lt;/font&gt;" style="rhombus;whiteSpace=wrap;html=1;rounded=1;" vertex="1" parent="1">
          <mxGeometry x="311.25" y="2220" width="247.5" height="247.5" as="geometry" />
        </mxCell>
        <mxCell id="rP7vyAMRoJXwcJd-NHnV-68" value="&lt;font style=&quot;font-size: 20px;&quot;&gt;No&lt;/font&gt;" style="text;strokeColor=none;align=center;fillColor=none;html=1;verticalAlign=middle;whiteSpace=wrap;rounded=0;" vertex="1" parent="1">
          <mxGeometry x="750" y="2308" width="60" height="30" as="geometry" />
        </mxCell>
        <mxCell id="rP7vyAMRoJXwcJd-NHnV-69" value="&lt;font style=&quot;font-size: 20px;&quot;&gt;remove Shopping cart model instance on &quot;clear all&quot;&lt;/font&gt;" style="whiteSpace=wrap;html=1;rounded=1;" vertex="1" parent="1">
          <mxGeometry x="-250" y="2256.87" width="337.5" height="168.75" as="geometry" />
        </mxCell>
        <mxCell id="rP7vyAMRoJXwcJd-NHnV-71" value="&lt;font style=&quot;font-size: 20px;&quot;&gt;Yes&lt;/font&gt;" style="text;strokeColor=none;align=center;fillColor=none;html=1;verticalAlign=middle;whiteSpace=wrap;rounded=0;" vertex="1" parent="1">
          <mxGeometry x="100" y="2300" width="60" height="30" as="geometry" />
        </mxCell>
        <mxCell id="rP7vyAMRoJXwcJd-NHnV-81" value="" style="edgeStyle=orthogonalEdgeStyle;rounded=0;orthogonalLoop=1;jettySize=auto;html=1;" edge="1" parent="1" source="rP7vyAMRoJXwcJd-NHnV-74">
          <mxGeometry relative="1" as="geometry">
            <mxPoint x="435.0050000000001" y="2960.0104334187276" as="targetPoint" />
          </mxGeometry>
        </mxCell>
        <mxCell id="rP7vyAMRoJXwcJd-NHnV-74" value="" style="whiteSpace=wrap;html=1;rounded=1;" vertex="1" parent="1">
          <mxGeometry x="301.88" y="2710" width="266.25" height="122.81" as="geometry" />
        </mxCell>
        <mxCell id="rP7vyAMRoJXwcJd-NHnV-79" value="&lt;font style=&quot;font-size: 20px;&quot;&gt;Submit order&lt;/font&gt;" style="text;strokeColor=none;align=center;fillColor=none;html=1;verticalAlign=middle;whiteSpace=wrap;rounded=0;" vertex="1" parent="1">
          <mxGeometry x="405.01" y="2756.41" width="60" height="30" as="geometry" />
        </mxCell>
        <mxCell id="rP7vyAMRoJXwcJd-NHnV-137" style="edgeStyle=orthogonalEdgeStyle;rounded=0;orthogonalLoop=1;jettySize=auto;html=1;" edge="1" parent="1" source="rP7vyAMRoJXwcJd-NHnV-109" target="rP7vyAMRoJXwcJd-NHnV-119">
          <mxGeometry relative="1" as="geometry" />
        </mxCell>
        <mxCell id="rP7vyAMRoJXwcJd-NHnV-109" value="" style="whiteSpace=wrap;html=1;rounded=1;" vertex="1" parent="1">
          <mxGeometry x="252.51" y="2960" width="365.02" height="182.51" as="geometry" />
        </mxCell>
        <mxCell id="rP7vyAMRoJXwcJd-NHnV-111" value="" style="whiteSpace=wrap;html=1;rounded=1;" vertex="1" parent="1">
          <mxGeometry x="850" y="2264.87" width="315.5" height="157.75" as="geometry" />
        </mxCell>
        <mxCell id="rP7vyAMRoJXwcJd-NHnV-113" value="&lt;span style=&quot;font-size: 20px;&quot;&gt;Create Shopping cart item model instance on &quot;add item to cart&quot;&lt;/span&gt;" style="text;strokeColor=none;align=center;fillColor=none;html=1;verticalAlign=middle;whiteSpace=wrap;rounded=0;" vertex="1" parent="1">
          <mxGeometry x="900" y="2308" width="225.5" height="60" as="geometry" />
        </mxCell>
        <mxCell id="rP7vyAMRoJXwcJd-NHnV-114" value="&lt;font style=&quot;font-size: 18px;&quot;&gt;Receipt model instance is created&lt;/font&gt;" style="text;strokeColor=none;align=center;fillColor=none;html=1;verticalAlign=middle;whiteSpace=wrap;rounded=0;" vertex="1" parent="1">
          <mxGeometry x="311.25" y="3006.25" width="230" height="90" as="geometry" />
        </mxCell>
        <mxCell id="rP7vyAMRoJXwcJd-NHnV-115" style="edgeStyle=orthogonalEdgeStyle;rounded=0;orthogonalLoop=1;jettySize=auto;html=1;" edge="1" parent="1" source="rP7vyAMRoJXwcJd-NHnV-119" target="rP7vyAMRoJXwcJd-NHnV-122">
          <mxGeometry relative="1" as="geometry" />
        </mxCell>
        <mxCell id="rP7vyAMRoJXwcJd-NHnV-116" style="edgeStyle=orthogonalEdgeStyle;rounded=0;orthogonalLoop=1;jettySize=auto;html=1;" edge="1" parent="1" source="rP7vyAMRoJXwcJd-NHnV-119" target="rP7vyAMRoJXwcJd-NHnV-121">
          <mxGeometry relative="1" as="geometry" />
        </mxCell>
        <mxCell id="rP7vyAMRoJXwcJd-NHnV-117" style="edgeStyle=orthogonalEdgeStyle;rounded=0;orthogonalLoop=1;jettySize=auto;html=1;" edge="1" parent="1" source="rP7vyAMRoJXwcJd-NHnV-119" target="rP7vyAMRoJXwcJd-NHnV-120">
          <mxGeometry relative="1" as="geometry" />
        </mxCell>
        <mxCell id="rP7vyAMRoJXwcJd-NHnV-118" style="edgeStyle=orthogonalEdgeStyle;rounded=0;orthogonalLoop=1;jettySize=auto;html=1;" edge="1" parent="1" source="rP7vyAMRoJXwcJd-NHnV-119" target="rP7vyAMRoJXwcJd-NHnV-123">
          <mxGeometry relative="1" as="geometry" />
        </mxCell>
        <mxCell id="rP7vyAMRoJXwcJd-NHnV-139" value="" style="edgeStyle=orthogonalEdgeStyle;rounded=0;orthogonalLoop=1;jettySize=auto;html=1;" edge="1" parent="1" source="rP7vyAMRoJXwcJd-NHnV-119" target="rP7vyAMRoJXwcJd-NHnV-138">
          <mxGeometry relative="1" as="geometry" />
        </mxCell>
        <mxCell id="rP7vyAMRoJXwcJd-NHnV-119" value="&lt;font style=&quot;font-size: 20px;&quot;&gt;Membership?&lt;/font&gt;" style="rhombus;whiteSpace=wrap;html=1;rounded=1;" vertex="1" parent="1">
          <mxGeometry x="339.38" y="3270" width="191.27" height="199.56" as="geometry" />
        </mxCell>
        <mxCell id="rP7vyAMRoJXwcJd-NHnV-120" value="" style="shape=parallelogram;perimeter=parallelogramPerimeter;whiteSpace=wrap;html=1;fixedSize=1;" vertex="1" parent="1">
          <mxGeometry x="-450" y="3590" width="240" height="120" as="geometry" />
        </mxCell>
        <mxCell id="rP7vyAMRoJXwcJd-NHnV-121" value="" style="shape=parallelogram;perimeter=parallelogramPerimeter;whiteSpace=wrap;html=1;fixedSize=1;" vertex="1" parent="1">
          <mxGeometry x="10" y="3590" width="240" height="120" as="geometry" />
        </mxCell>
        <mxCell id="rP7vyAMRoJXwcJd-NHnV-122" value="" style="shape=parallelogram;perimeter=parallelogramPerimeter;whiteSpace=wrap;html=1;fixedSize=1;" vertex="1" parent="1">
          <mxGeometry x="580" y="3580" width="240" height="120" as="geometry" />
        </mxCell>
        <mxCell id="rP7vyAMRoJXwcJd-NHnV-123" value="" style="shape=parallelogram;perimeter=parallelogramPerimeter;whiteSpace=wrap;html=1;fixedSize=1;" vertex="1" parent="1">
          <mxGeometry x="1020" y="3570" width="240" height="120" as="geometry" />
        </mxCell>
        <mxCell id="rP7vyAMRoJXwcJd-NHnV-124" value="&lt;font style=&quot;font-size: 20px;&quot;&gt;Regular?&lt;/font&gt;" style="text;strokeColor=none;align=center;fillColor=none;html=1;verticalAlign=middle;whiteSpace=wrap;rounded=0;" vertex="1" parent="1">
          <mxGeometry x="-300" y="3550" width="60" height="30" as="geometry" />
        </mxCell>
        <mxCell id="rP7vyAMRoJXwcJd-NHnV-125" value="&lt;font style=&quot;font-size: 20px;&quot;&gt;Bronze?&lt;/font&gt;" style="text;strokeColor=none;align=center;fillColor=none;html=1;verticalAlign=middle;whiteSpace=wrap;rounded=0;" vertex="1" parent="1">
          <mxGeometry x="160" y="3550" width="60" height="30" as="geometry" />
        </mxCell>
        <mxCell id="rP7vyAMRoJXwcJd-NHnV-126" value="&lt;font style=&quot;font-size: 20px;&quot;&gt;SIlver?&lt;/font&gt;" style="text;strokeColor=none;align=center;fillColor=none;html=1;verticalAlign=middle;whiteSpace=wrap;rounded=0;" vertex="1" parent="1">
          <mxGeometry x="730" y="3540" width="60" height="30" as="geometry" />
        </mxCell>
        <mxCell id="rP7vyAMRoJXwcJd-NHnV-127" value="&lt;font style=&quot;font-size: 20px;&quot;&gt;VIP&lt;/font&gt;" style="text;strokeColor=none;align=center;fillColor=none;html=1;verticalAlign=middle;whiteSpace=wrap;rounded=0;" vertex="1" parent="1">
          <mxGeometry x="1140" y="3530" width="60" height="30" as="geometry" />
        </mxCell>
        <mxCell id="rP7vyAMRoJXwcJd-NHnV-128" value="&lt;font style=&quot;font-size: 18px;&quot;&gt;- Free of charge&amp;nbsp;&lt;/font&gt;" style="text;strokeColor=none;align=center;fillColor=none;html=1;verticalAlign=middle;whiteSpace=wrap;rounded=0;" vertex="1" parent="1">
          <mxGeometry x="-414" y="3600" width="200" height="30" as="geometry" />
        </mxCell>
        <mxCell id="rP7vyAMRoJXwcJd-NHnV-129" value="&lt;font style=&quot;font-size: 18px;&quot;&gt;- No discount on either order or shipping fees&lt;/font&gt;" style="text;strokeColor=none;align=center;fillColor=none;html=1;verticalAlign=middle;whiteSpace=wrap;rounded=0;" vertex="1" parent="1">
          <mxGeometry x="-440" y="3660" width="220" height="30" as="geometry" />
        </mxCell>
        <mxCell id="rP7vyAMRoJXwcJd-NHnV-130" style="edgeStyle=orthogonalEdgeStyle;rounded=0;orthogonalLoop=1;jettySize=auto;html=1;exitX=0.5;exitY=1;exitDx=0;exitDy=0;entryX=0.5;entryY=0;entryDx=0;entryDy=0;" edge="1" parent="1" source="rP7vyAMRoJXwcJd-NHnV-129" target="rP7vyAMRoJXwcJd-NHnV-129">
          <mxGeometry relative="1" as="geometry" />
        </mxCell>
        <mxCell id="rP7vyAMRoJXwcJd-NHnV-131" value="&lt;font style=&quot;font-size: 18px;&quot;&gt;- 59 t a month, 173 three months, 680 a year&lt;/font&gt;" style="text;strokeColor=none;align=center;fillColor=none;html=1;verticalAlign=middle;whiteSpace=wrap;rounded=0;" vertex="1" parent="1">
          <mxGeometry x="40" y="3610" width="200" height="30" as="geometry" />
        </mxCell>
        <mxCell id="rP7vyAMRoJXwcJd-NHnV-132" value="&lt;font style=&quot;font-size: 18px;&quot;&gt;- 5% discount on order fees&lt;/font&gt;" style="text;strokeColor=none;align=center;fillColor=none;html=1;verticalAlign=middle;whiteSpace=wrap;rounded=0;" vertex="1" parent="1">
          <mxGeometry x="30" y="3660" width="200" height="30" as="geometry" />
        </mxCell>
        <mxCell id="rP7vyAMRoJXwcJd-NHnV-133" value="&lt;font style=&quot;font-size: 18px;&quot;&gt;- 79 t a month, 173t three months, 980 a year&lt;/font&gt;" style="text;strokeColor=none;align=center;fillColor=none;html=1;verticalAlign=middle;whiteSpace=wrap;rounded=0;" vertex="1" parent="1">
          <mxGeometry x="600" y="3600" width="210" height="30" as="geometry" />
        </mxCell>
        <mxCell id="rP7vyAMRoJXwcJd-NHnV-134" value="&lt;font style=&quot;font-size: 18px;&quot;&gt;- 12% discount on order fees&lt;/font&gt;" style="text;strokeColor=none;align=center;fillColor=none;html=1;verticalAlign=middle;whiteSpace=wrap;rounded=0;" vertex="1" parent="1">
          <mxGeometry x="600" y="3650" width="210" height="30" as="geometry" />
        </mxCell>
        <mxCell id="rP7vyAMRoJXwcJd-NHnV-135" value="&lt;font style=&quot;font-size: 18px;&quot;&gt;- 99.5 t a month, 293.5t three months, 1150t a year&lt;/font&gt;" style="text;strokeColor=none;align=center;fillColor=none;html=1;verticalAlign=middle;whiteSpace=wrap;rounded=0;" vertex="1" parent="1">
          <mxGeometry x="1041" y="3590" width="210" height="30" as="geometry" />
        </mxCell>
        <mxCell id="rP7vyAMRoJXwcJd-NHnV-136" value="&lt;span style=&quot;font-size: 18px;&quot;&gt;- 18% discount on order + shipping fees&lt;/span&gt;" style="text;strokeColor=none;align=center;fillColor=none;html=1;verticalAlign=middle;whiteSpace=wrap;rounded=0;" vertex="1" parent="1">
          <mxGeometry x="1037.5" y="3650" width="210" height="30" as="geometry" />
        </mxCell>
        <mxCell id="rP7vyAMRoJXwcJd-NHnV-138" value="&lt;font style=&quot;font-size: 20px;&quot;&gt;Submit order&amp;nbsp;&lt;/font&gt;" style="whiteSpace=wrap;html=1;rounded=1;" vertex="1" parent="1">
          <mxGeometry x="255.02" y="3950" width="360" height="180" as="geometry" />
        </mxCell>
      </root>
    </mxGraphModel>
  </diagram>
</mxfile>
